<svg xmlns="http://www.w3.org/2000/svg" xml:space="preserve" viewBox="0 0 16 16" id="google-earth">
  <circle cx="8" cy="8" r="7.5" fill="#ECEFF1"></circle>
  <path fill="#1E88E5" d="M8 0C3.589 0 0 3.589 0 8s3.589 8 8 8 8-3.589 8-8-3.589-8-8-8zm6.84 6.524c-.162-.189-.329-.39-.493-.59-.554-.676-1.312-1.601-2.324-2.614-1.016-1.017-2.014-1.73-2.922-2.225a7.012 7.012 0 0 1 5.739 5.429zM3.188 2.929c1.7.1 4.694 1.564 6.16 2.795.834.7 3.952 3.063 5.514 3.65a6.877 6.877 0 0 1-.335 1.133h-.857c-.551 0-1.781-.271-6.095-2.605-2.906-1.574-4.913-2.138-6.313-1.774a6.994 6.994 0 0 1 1.926-3.199zM1.285 9.963c.871-.028 2.763.485 4.832 1.494 2.471 1.204 4.131 1.718 5.552 1.718.402 0 .763-.02 1.081-.048a7.018 7.018 0 0 1-1.453 1.045c-1.935-.009-3.39-.403-4.453-.693-.621-.17-1.11-.304-1.509-.304-.451 0-1.031.144-1.493.446a7.03 7.03 0 0 1-2.557-3.658z"></path>
</svg>
